<svg xmlns="http://www.w3.org/2000/svg" width="180" height="180" viewBox="0 0 180 180">
  <g id="influencer" transform="translate(-6.118 -6.145)">
    <g id="Group_143001" data-name="Group 143001" transform="translate(75.956 7.959)">
      <g id="Group_143000" data-name="Group 143000">
        <g id="Group_142999" data-name="Group 142999">
          <g id="Group_142998" data-name="Group 142998">
            <g id="Group_142997" data-name="Group 142997">
              <g id="Group_142996" data-name="Group 142996">
                <g id="Group_142979" data-name="Group 142979" transform="translate(0)">
                  <g id="Group_142978" data-name="Group 142978">
                    <path id="Path_210413" data-name="Path 210413" d="M108.782,186.145h80.231a7.42,7.42,0,0,0,7.417-7.422V15.381a7.42,7.42,0,0,0-7.417-7.422H108.782a7.42,7.42,0,0,0-7.417,7.422V178.723a7.419,7.419,0,0,0,7.417,7.421Z" transform="translate(-101.365 -7.959)" fill="#58595b"/>
                  </g>
                </g>
                <g id="Group_142981" data-name="Group 142981" transform="translate(0.66 0.66)">
                  <g id="Group_142980" data-name="Group 142980">
                    <path id="Path_210414" data-name="Path 210414" d="M192.292,8.849a7.39,7.39,0,0,1,.661,3.05V175.242a7.42,7.42,0,0,1-7.417,7.422H105.3a7.377,7.377,0,0,1-3.049-.661,7.412,7.412,0,0,0,6.757,4.372h80.231a7.42,7.42,0,0,0,7.417-7.422V15.61A7.419,7.419,0,0,0,192.292,8.849Z" transform="translate(-102.255 -8.849)" fill="#414042"/>
                  </g>
                </g>
                <g id="Group_142983" data-name="Group 142983" transform="translate(32.695 6.495)">
                  <g id="Group_142982" data-name="Group 142982">
                    <path id="Path_210415" data-name="Path 210415" d="M147.2,20.235h26.156a1.76,1.76,0,0,0,0-3.52H147.2a1.76,1.76,0,0,0,0,3.52Z" transform="translate(-145.443 -16.715)" fill="#939598"/>
                  </g>
                </g>
                <g id="Group_142985" data-name="Group 142985" transform="translate(23.72 6.323)">
                  <g id="Group_142984" data-name="Group 142984">
                    <circle id="Ellipse_47" data-name="Ellipse 47" cx="1.932" cy="1.932" r="1.932" fill="#939598"/>
                  </g>
                </g>
                <g id="Group_142987" data-name="Group 142987" transform="translate(34.707 161.357)">
                  <g id="Group_142986" data-name="Group 142986">
                    <path id="Path_210416" data-name="Path 210416" d="M151.123,233.9h19.719a2.976,2.976,0,0,0,2.967-2.967V228.32a2.976,2.976,0,0,0-2.967-2.967H151.123a2.976,2.976,0,0,0-2.967,2.967v2.617A2.976,2.976,0,0,0,151.123,233.9Z" transform="translate(-148.156 -225.353)" fill="#939598"/>
                  </g>
                </g>
                <g id="Group_142989" data-name="Group 142989" transform="translate(0 16.18)">
                  <g id="Group_142988" data-name="Group 142988">
                    <path id="Path_210417" data-name="Path 210417" d="M101.365,29.773h95.067V168.64H101.365Z" transform="translate(-101.365 -29.773)" fill="#f1f2f2"/>
                  </g>
                </g>
                <g id="Group_142991" data-name="Group 142991" transform="translate(0 16.18)">
                  <g id="Group_142990" data-name="Group 142990">
                    <path id="Path_210418" data-name="Path 210418" d="M189.014,29.773V157.506a3.711,3.711,0,0,1-3.709,3.712h-83.94v7.423h95.067V29.773Z" transform="translate(-101.365 -29.773)" fill="#e6e7e8"/>
                  </g>
                </g>
                <g id="Group_142993" data-name="Group 142993" transform="translate(0 16.18)">
                  <g id="Group_142992" data-name="Group 142992">
                    <path id="Path_210419" data-name="Path 210419" d="M192.723,29.773V161.217a3.711,3.711,0,0,1-3.709,3.712H101.365v3.712h95.067V29.773Z" transform="translate(-101.365 -29.773)" fill="#d1d3d4"/>
                  </g>
                </g>
                <g id="Group_142995" data-name="Group 142995" transform="translate(2.966 21.373)">
                  <g id="Group_142994" data-name="Group 142994">
                    <path id="Path_210420" data-name="Path 210420" d="M106.847,86.885a1.484,1.484,0,0,1-1.483-1.483v-40.8a1.483,1.483,0,1,1,2.967,0V85.4A1.483,1.483,0,0,1,106.847,86.885Zm0-46.73a1.484,1.484,0,0,1-1.483-1.483v-.415a1.483,1.483,0,1,1,2.967,0v.415A1.483,1.483,0,0,1,106.847,40.155Z" transform="translate(-105.364 -36.773)" fill="#fff"/>
                  </g>
                </g>
              </g>
            </g>
          </g>
        </g>
      </g>
    </g>
    <g id="Group_143024" data-name="Group 143024" transform="translate(6.118 101.45)">
      <g id="Group_143003" data-name="Group 143003" transform="translate(46.825 14.592)">
        <g id="Group_143002" data-name="Group 143002">
          <path id="Path_210421" data-name="Path 210421" d="M71.034,153.575H69.246v13.02h1.788a6.51,6.51,0,0,0,0-13.02Z" transform="translate(-69.246 -153.575)" fill="#b171f4"/>
        </g>
      </g>
      <g id="Group_143005" data-name="Group 143005" transform="translate(46.826 15.821)">
        <g id="Group_143004" data-name="Group 143004">
          <path id="Path_210422" data-name="Path 210422" d="M74.831,155.232a6.5,6.5,0,0,1-5.28,10.307h-.3v1.483h1.788a6.505,6.505,0,0,0,3.8-11.791Z" transform="translate(-69.247 -155.232)" fill="#a54af4"/>
        </g>
      </g>
      <g id="Group_143007" data-name="Group 143007" transform="translate(13.899 4.284)">
        <g id="Group_143006" data-name="Group 143006">
          <path id="Path_210423" data-name="Path 210423" d="M24.856,139.677l15.973,5.754V167.56l-15.973,5.754Z" transform="translate(-24.856 -139.677)" fill="#b171f4"/>
        </g>
      </g>
      <g id="Group_143009" data-name="Group 143009" transform="translate(13.899 9.503)">
        <g id="Group_143008" data-name="Group 143008">
          <path id="Path_210424" data-name="Path 210424" d="M39.346,146.714v20.137a1.484,1.484,0,0,1-.981,1.4l-13.509,4.867v2.018l15.973-5.754V147.248Z" transform="translate(-24.856 -146.714)" fill="#a54af4"/>
        </g>
      </g>
      <g id="Group_143011" data-name="Group 143011" transform="translate(0 14.926)">
        <g id="Group_143010" data-name="Group 143010">
          <path id="Path_210425" data-name="Path 210425" d="M6.118,160.118a6.1,6.1,0,0,0,6.093,6.1,5.968,5.968,0,0,0,.665-.036V154.061a5.968,5.968,0,0,0-.665-.036A6.09,6.09,0,0,0,6.118,160.118Z" transform="translate(-6.118 -154.025)" fill="#58595b"/>
        </g>
      </g>
      <g id="Group_143013" data-name="Group 143013" transform="translate(29.872 10.038)">
        <g id="Group_143012" data-name="Group 143012">
          <path id="Path_210426" data-name="Path 210426" d="M46.391,147.435H59.635a3.709,3.709,0,0,1,3.709,3.709v14.711a3.709,3.709,0,0,1-3.709,3.709H46.391Z" transform="translate(-46.391 -147.435)" fill="#893add"/>
        </g>
      </g>
      <g id="Group_143015" data-name="Group 143015" transform="translate(29.872 10.502)">
        <g id="Group_143014" data-name="Group 143014">
          <path id="Path_210427" data-name="Path 210427" d="M61.4,148.06a3.667,3.667,0,0,1,.464,1.762v14.711a3.709,3.709,0,0,1-3.709,3.709H46.391v1.483H59.635a3.709,3.709,0,0,0,3.709-3.709V151.305A3.694,3.694,0,0,0,61.4,148.06Z" transform="translate(-46.391 -148.06)" fill="#6c2bc1"/>
        </g>
      </g>
      <g id="Group_143017" data-name="Group 143017" transform="translate(6.757)">
        <g id="Group_143016" data-name="Group 143016">
          <path id="Path_210428" data-name="Path 210428" d="M18.8,176.1a3.571,3.571,0,0,0,3.569-3.571V137.473a3.571,3.571,0,0,0-7.142,0v35.061A3.571,3.571,0,0,0,18.8,176.1Z" transform="translate(-15.228 -133.902)" fill="#893add"/>
        </g>
      </g>
      <g id="Group_143019" data-name="Group 143019" transform="translate(7.185 0.427)">
        <g id="Group_143018" data-name="Group 143018">
          <path id="Path_210429" data-name="Path 210429" d="M20.608,134.478a3.525,3.525,0,0,1,.427,1.66V171.2a3.571,3.571,0,0,1-3.569,3.571,3.533,3.533,0,0,1-1.662-.427,3.56,3.56,0,0,0,6.714-1.66V137.622A3.557,3.557,0,0,0,20.608,134.478Z" transform="translate(-15.804 -134.478)" fill="#6c2bc1"/>
        </g>
      </g>
      <g id="Group_143021" data-name="Group 143021" transform="translate(33.403 32.166)">
        <g id="Group_143020" data-name="Group 143020">
          <path id="Path_210430" data-name="Path 210430" d="M51.151,177.268h8.488v9.64H51.151Z" transform="translate(-51.151 -177.268)" fill="#58595b"/>
        </g>
      </g>
      <g id="Group_143023" data-name="Group 143023" transform="translate(33.403 32.166)">
        <g id="Group_143022" data-name="Group 143022">
          <path id="Path_210431" data-name="Path 210431" d="M58.155,177.268v6.673a1.483,1.483,0,0,1-1.483,1.483H51.151v1.484h8.488v-9.64Z" transform="translate(-51.151 -177.268)" fill="#414042"/>
        </g>
      </g>
    </g>
    <g id="Group_143033" data-name="Group 143033" transform="translate(34.535 143.289)">
      <g id="Group_143026" data-name="Group 143026" transform="translate(18.056)">
        <g id="Group_143025" data-name="Group 143025">
          <path id="Path_210432" data-name="Path 210432" d="M72.7,209.982H93V190.264H72.7A3.709,3.709,0,0,0,69,193.973v12.3A3.709,3.709,0,0,0,72.7,209.982Z" transform="translate(-68.996 -190.264)" fill="#d10028"/>
        </g>
      </g>
      <g id="Group_143028" data-name="Group 143028" transform="translate(18.056 12.301)">
        <g id="Group_143027" data-name="Group 143027">
          <path id="Path_210433" data-name="Path 210433" d="M69,206.848v3.709a3.709,3.709,0,0,0,3.709,3.709H93v-3.709H72.7A3.709,3.709,0,0,1,69,206.848Z" transform="translate(-68.996 -206.848)" fill="#b7022d"/>
        </g>
      </g>
      <g id="Group_143030" data-name="Group 143030" transform="translate(0.001)">
        <g id="Group_143029" data-name="Group 143029">
          <path id="Path_210434" data-name="Path 210434" d="M59,209.982H48.364a3.709,3.709,0,0,1-3.709-3.709v-12.3a3.709,3.709,0,0,1,3.709-3.709H59a3.709,3.709,0,0,1,3.709,3.709v12.3A3.709,3.709,0,0,1,59,209.982Z" transform="translate(-44.655 -190.264)" fill="#ffd2c0"/>
        </g>
      </g>
      <g id="Group_143032" data-name="Group 143032" transform="translate(0 12.301)">
        <g id="Group_143031" data-name="Group 143031">
          <path id="Path_210435" data-name="Path 210435" d="M59,210.557H48.363a3.709,3.709,0,0,1-3.709-3.709v3.709a3.709,3.709,0,0,0,3.709,3.709H59a3.709,3.709,0,0,0,3.709-3.709v-3.709A3.709,3.709,0,0,1,59,210.557Z" transform="translate(-44.654 -206.848)" fill="#fcc4ae"/>
        </g>
      </g>
    </g>
    <g id="Group_143070" data-name="Group 143070" transform="translate(75.955 27.182)">
      <g id="Group_143069" data-name="Group 143069">
        <g id="Group_143054" data-name="Group 143054">
          <path id="Path_210436" data-name="Path 210436" d="M156.027,43.884c10.42,0,19.914,2.2,27.059,5.806a19.708,19.708,0,0,0-19.316-15.815H148.284A19.708,19.708,0,0,0,128.968,49.69c7.144-3.607,16.639-5.806,27.059-5.806Z" transform="translate(-108.493 -33.875)" fill="#ffd2c0"/>
          <g id="Group_143035" data-name="Group 143035" transform="translate(7.311 10.009)">
            <g id="Group_143034" data-name="Group 143034">
              <ellipse id="Ellipse_48" data-name="Ellipse 48" cx="40.223" cy="22.321" rx="40.223" ry="22.321" fill="#f2ad97"/>
            </g>
          </g>
          <g id="Group_143037" data-name="Group 143037" transform="translate(10.657 19.705)">
            <g id="Group_143036" data-name="Group 143036">
              <path id="Path_210437" data-name="Path 210437" d="M185.776,60.441a14.362,14.362,0,0,1,3.346,8.916c0,12.327-18.008,22.321-40.223,22.321-13.769,0-25.917-3.841-33.167-9.7,6.2,7.888,20.375,13.4,36.876,13.4,22.214,0,40.223-9.994,40.223-22.321,0-4.687-2.608-9.034-7.055-12.624Z" transform="translate(-115.732 -60.441)" fill="#e59076"/>
            </g>
          </g>
          <g id="Group_143039" data-name="Group 143039" transform="translate(16.01 17.153)">
            <g id="Group_143038" data-name="Group 143038">
              <ellipse id="Ellipse_49" data-name="Ellipse 49" cx="31.524" cy="19.038" rx="31.524" ry="19.038" fill="#995222"/>
            </g>
          </g>
          <g id="Group_143041" data-name="Group 143041" transform="translate(15.29 17.153)">
            <g id="Group_143040" data-name="Group 143040">
              <path id="Path_210438" data-name="Path 210438" d="M186.013,118.043,183.7,107.525a76.365,76.365,0,0,1-1.657-20.633l.988-18.575C178.129,61.651,167.078,57,154.222,57c-12.9,0-23.977,4.679-28.86,11.378L126.4,86.892a76.365,76.365,0,0,1-1.657,20.633l-2.309,10.519A19.113,19.113,0,0,0,141.1,141.254h26.245A19.113,19.113,0,0,0,186.013,118.043Z" transform="translate(-121.978 -57)" fill="#7c3108"/>
            </g>
          </g>
          <g id="Group_143043" data-name="Group 143043" transform="translate(19.185 24.638)">
            <g id="Group_143042" data-name="Group 143042">
              <path id="Path_210439" data-name="Path 210439" d="M187.369,120.634l-2.308-10.518A76.364,76.364,0,0,1,183.4,89.483l.988-18.575a20.33,20.33,0,0,0-3.843-3.876c.042.056.093.11.134.167l-.988,18.575a76.364,76.364,0,0,0,1.657,20.633l2.308,10.518a19.113,19.113,0,0,1-18.669,23.211H138.746a18.953,18.953,0,0,1-11.517-3.862,19.017,19.017,0,0,0,15.226,7.571H168.7A19.113,19.113,0,0,0,187.369,120.634Z" transform="translate(-127.229 -67.032)" fill="#6d2e03"/>
            </g>
          </g>
          <g id="Group_143045" data-name="Group 143045" transform="translate(0 82.087)">
            <g id="Group_143044" data-name="Group 143044">
              <path id="Path_210440" data-name="Path 210440" d="M196.431,198.137H101.364V170.361A25.961,25.961,0,0,1,127.325,144.4H170.47a25.961,25.961,0,0,1,25.961,25.961Z" transform="translate(-101.364 -144.4)" fill="#d10028"/>
            </g>
          </g>
          <g id="Group_143047" data-name="Group 143047" transform="translate(0 87.932)">
            <g id="Group_143046" data-name="Group 143046">
              <path id="Path_210441" data-name="Path 210441" d="M186.877,152.28a25.849,25.849,0,0,1,5.845,16.407v24.067a3.709,3.709,0,0,1-3.709,3.709h-87.65v3.709h95.067V172.4A25.907,25.907,0,0,0,186.877,152.28Z" transform="translate(-101.364 -152.28)" fill="#b7022d"/>
            </g>
          </g>
          <g id="Group_143049" data-name="Group 143049" transform="translate(23.789 82.087)">
            <g id="Group_143048" data-name="Group 143048">
              <path id="Path_210442" data-name="Path 210442" d="M180.925,198.137H133.436v-46.32a7.417,7.417,0,0,1,7.417-7.417h32.655a7.417,7.417,0,0,1,7.417,7.417Z" transform="translate(-133.436 -144.4)" fill="#fcc4ae"/>
            </g>
          </g>
          <g id="Group_143051" data-name="Group 143051" transform="translate(23.789 96.904)">
            <g id="Group_143050" data-name="Group 143050">
              <path id="Path_210443" data-name="Path 210443" d="M169.053,164.375a13.2,13.2,0,0,0-11.872,7.437,13.2,13.2,0,0,0-23.745,0V203.3h47.489V171.811a13.2,13.2,0,0,0-11.872-7.436Z" transform="translate(-133.436 -164.375)" fill="#e8566f"/>
            </g>
          </g>
          <g id="Group_143053" data-name="Group 143053" transform="translate(23.789 132.117)">
            <g id="Group_143052" data-name="Group 143052" transform="translate(0 0)">
              <path id="Path_210444" data-name="Path 210444" d="M133.436,211.848h47.489v3.709H133.436Z" transform="translate(-133.436 -211.848)" fill="#e63950"/>
            </g>
          </g>
        </g>
        <path id="Path_210445" data-name="Path 210445" d="M162.3,132.452a25.68,25.68,0,0,1-9.05-1.64v10.079h18.1V130.812a25.686,25.686,0,0,1-9.05,1.64Z" transform="translate(-114.763 -58.849)" fill="#fcc4ae"/>
        <path id="Path_210446" data-name="Path 210446" d="M162.3,132.452a25.68,25.68,0,0,1-9.05-1.64v2.873a26.924,26.924,0,0,0,18.1,0v-2.873A25.686,25.686,0,0,1,162.3,132.452Z" transform="translate(-114.763 -58.851)" fill="#f2ad97"/>
        <g id="Group_143068" data-name="Group 143068" transform="translate(14.132 23.098)">
          <g id="Group_143057" data-name="Group 143057" transform="translate(0 14.874)">
            <g id="Group_143055" data-name="Group 143055" transform="translate(58.575)">
              <path id="Path_210447" data-name="Path 210447" d="M199.963,85.03v9.848a25.836,25.836,0,0,1-.577,5.424c.191.015.383.03.577.03a7.651,7.651,0,0,0,0-15.3Z" transform="translate(-199.386 -85.03)" fill="#ffd2c0"/>
              <path id="Path_210448" data-name="Path 210448" d="M204.782,87.338A7.647,7.647,0,0,1,199.6,99.77q-.095.566-.213,1.124c.191.015.381.033.576.033a7.649,7.649,0,0,0,4.819-13.589Z" transform="translate(-199.386 -85.626)" fill="#fcc4ae"/>
              <path id="Path_210449" data-name="Path 210449" d="M200.142,90.062v6.116c0,.577-.026,1.147-.063,1.715.021,0,.042.007.063.007a3.919,3.919,0,1,0,0-7.837Z" transform="translate(-199.565 -86.33)" fill="#f2ad97"/>
            </g>
            <g id="Group_143056" data-name="Group 143056">
              <path id="Path_210450" data-name="Path 210450" d="M128.067,94.878V85.03a7.65,7.65,0,1,0,0,15.3c.2,0,.386-.015.577-.03a25.853,25.853,0,0,1-.577-5.423Z" transform="translate(-120.417 -85.03)" fill="#ffd2c0"/>
              <path id="Path_210451" data-name="Path 210451" d="M129.367,96.178V90.062a3.919,3.919,0,1,0,0,7.837c.022,0,.042-.006.063-.007-.037-.567-.063-1.138-.063-1.715Z" transform="translate(-121.716 -86.33)" fill="#f2ad97"/>
            </g>
          </g>
          <g id="Group_143059" data-name="Group 143059" transform="translate(7.65)">
            <g id="Group_143058" data-name="Group 143058">
              <path id="Path_210452" data-name="Path 210452" d="M130.731,79.1V89.7a25.75,25.75,0,0,0,51.5,0V79.1a14.12,14.12,0,0,0-14.12-14.12H144.851a14.12,14.12,0,0,0-14.12,14.12Z" transform="translate(-130.731 -64.977)" fill="#ffd2c0"/>
            </g>
          </g>
          <g id="Group_143061" data-name="Group 143061" transform="translate(14.469 3.43)">
            <g id="Group_143060" data-name="Group 143060">
              <path id="Path_210453" data-name="Path 210453" d="M179.694,69.6a14.053,14.053,0,0,1,3.429,9.207v10.6a25.746,25.746,0,0,1-43.2,18.932,25.747,25.747,0,0,0,44.683-17.449v-10.6A14.077,14.077,0,0,0,179.694,69.6Z" transform="translate(-139.924 -69.601)" fill="#fcc4ae"/>
            </g>
          </g>
          <g id="Group_143063" data-name="Group 143063" transform="translate(41.635 15.807)">
            <g id="Group_143062" data-name="Group 143062">
              <circle id="Ellipse_50" data-name="Ellipse 50" cx="2.963" cy="2.963" r="2.963" fill="#995222"/>
            </g>
          </g>
          <g id="Group_143065" data-name="Group 143065" transform="translate(19.243 15.807)">
            <g id="Group_143064" data-name="Group 143064">
              <circle id="Ellipse_51" data-name="Ellipse 51" cx="2.963" cy="2.963" r="2.963" fill="#995222"/>
            </g>
          </g>
          <g id="Group_143067" data-name="Group 143067" transform="translate(27.057 34.088)">
            <g id="Group_143066" data-name="Group 143066">
              <path id="Path_210454" data-name="Path 210454" d="M163.239,114.718c3.5,0,6.344-1.694,6.344-3.784H156.894C156.895,113.024,159.735,114.718,163.239,114.718Z" transform="translate(-156.894 -110.934)" fill="#995222"/>
            </g>
          </g>
        </g>
      </g>
    </g>
    <g id="Group_143081" data-name="Group 143081" transform="translate(92.915 77.867)">
      <g id="Group_143075" data-name="Group 143075">
        <g id="Group_143072" data-name="Group 143072">
          <g id="Group_143071" data-name="Group 143071">
            <circle id="Ellipse_52" data-name="Ellipse 52" cx="2.604" cy="2.604" r="2.604" fill="#e8566f"/>
          </g>
        </g>
        <g id="Group_143074" data-name="Group 143074" transform="translate(0.182 0.182)">
          <g id="Group_143073" data-name="Group 143073">
            <path id="Path_210455" data-name="Path 210455" d="M127.544,102.393a2.59,2.59,0,0,1-3.362,3.362,2.6,2.6,0,1,0,3.362-3.362Z" transform="translate(-124.182 -102.393)" fill="#e63950"/>
          </g>
        </g>
      </g>
      <g id="Group_143080" data-name="Group 143080" transform="translate(56.373)">
        <g id="Group_143077" data-name="Group 143077">
          <g id="Group_143076" data-name="Group 143076">
            <circle id="Ellipse_53" data-name="Ellipse 53" cx="2.604" cy="2.604" r="2.604" fill="#e8566f"/>
          </g>
        </g>
        <g id="Group_143079" data-name="Group 143079" transform="translate(0.182 0.182)">
          <g id="Group_143078" data-name="Group 143078">
            <path id="Path_210456" data-name="Path 210456" d="M203.544,102.393a2.59,2.59,0,0,1-3.362,3.362,2.6,2.6,0,1,0,3.362-3.362Z" transform="translate(-200.182 -102.393)" fill="#e63950"/>
          </g>
        </g>
      </g>
    </g>
    <g id="Group_143091" data-name="Group 143091" transform="translate(56.573 85.016)">
      <g id="Group_143084" data-name="Group 143084">
        <g id="Group_143083" data-name="Group 143083">
          <g id="Group_143082" data-name="Group 143082">
            <path id="Path_210457" data-name="Path 210457" d="M77.823,131.318A3.319,3.319,0,0,1,74.5,128V115.092a3.319,3.319,0,0,1,3.319-3.319H99.734a3.319,3.319,0,0,1,3.319,3.319V128a3.319,3.319,0,0,1-3.319,3.319H91.716v3.862a.664.664,0,0,1-1.112.49l-4.763-4.353Z" transform="translate(-74.504 -111.773)" fill="#ffc91d"/>
          </g>
        </g>
      </g>
      <g id="Group_143087" data-name="Group 143087" transform="translate(14.6 0.057)">
        <g id="Group_143086" data-name="Group 143086">
          <g id="Group_143085" data-name="Group 143085">
            <path id="Path_210458" data-name="Path 210458" d="M105.387,111.85a3.3,3.3,0,0,1,.525,1.779v12.906a3.32,3.32,0,0,1-3.32,3.32H94.574v3.863a.655.655,0,0,1-.387.6l1.5,1.371a.664.664,0,0,0,1.112-.49v-3.863h8.018a3.32,3.32,0,0,0,3.32-3.32V115.112a3.315,3.315,0,0,0-2.75-3.262Z" transform="translate(-94.187 -111.85)" fill="#ffa91a"/>
          </g>
        </g>
      </g>
      <g id="Group_143090" data-name="Group 143090" transform="translate(6.979 4.118)">
        <g id="Group_143089" data-name="Group 143089">
          <g id="Group_143088" data-name="Group 143088">
            <path id="Path_210459" data-name="Path 210459" d="M85.046,118.458a3.867,3.867,0,0,1,5.469,0l.694.694.694-.694a3.867,3.867,0,1,1,5.469,5.469l-.694.694-4.715,4.715a1.067,1.067,0,0,1-1.509,0l-4.715-4.715-.694-.694A3.868,3.868,0,0,1,85.046,118.458Z" transform="translate(-83.913 -117.325)" fill="#e63950"/>
          </g>
        </g>
      </g>
    </g>
    <g id="Group_143102" data-name="Group 143102" transform="translate(11.551 6.145)">
      <g id="Group_143084-2" data-name="Group 143084">
        <g id="Group_143083-2" data-name="Group 143083">
          <g id="Group_143082-2" data-name="Group 143082">
            <path id="Path_210457-2" data-name="Path 210457" d="M79.152,139.144A4.648,4.648,0,0,1,74.5,134.5V116.421a4.648,4.648,0,0,1,4.648-4.648h30.684a4.648,4.648,0,0,1,4.648,4.648V134.5a4.648,4.648,0,0,1-4.648,4.648H98.608v5.409a.93.93,0,0,1-1.557.687l-6.671-6.1Z" transform="translate(-74.504 -111.773)" fill="#ffc91d"/>
          </g>
        </g>
      </g>
      <g id="Group_143087-2" data-name="Group 143087" transform="translate(20.445 0.08)">
        <g id="Group_143086-2" data-name="Group 143086">
          <g id="Group_143085-2" data-name="Group 143085">
            <path id="Path_210458-2" data-name="Path 210458" d="M109.872,111.85a4.614,4.614,0,0,1,.735,2.491v18.073a4.649,4.649,0,0,1-4.649,4.649H94.729v5.41a.917.917,0,0,1-.542.843l2.1,1.921a.93.93,0,0,0,1.557-.687v-5.41h11.229a4.649,4.649,0,0,0,4.649-4.649V116.418a4.642,4.642,0,0,0-3.852-4.568Z" transform="translate(-94.187 -111.85)" fill="#ffa91a"/>
          </g>
        </g>
      </g>
      <g id="Group_143090-2" data-name="Group 143090" transform="translate(9.773 5.767)">
        <g id="Group_143089-2" data-name="Group 143089">
          <g id="Group_143088-2" data-name="Group 143088">
            <path id="Path_210459-2" data-name="Path 210459" d="M85.5,118.911a5.415,5.415,0,0,1,7.659,0l.971.971.971-.971a5.415,5.415,0,0,1,7.659,7.659l-.971.971-6.6,6.6a1.5,1.5,0,0,1-2.114,0l-6.6-6.6-.971-.971a5.416,5.416,0,0,1,0-7.659Z" transform="translate(-83.913 -117.325)" fill="#e63950"/>
          </g>
        </g>
      </g>
    </g>
    <g id="Group_143101" data-name="Group 143101" transform="translate(157.568 27.33)">
      <g id="Group_143094" data-name="Group 143094">
        <g id="Group_143093" data-name="Group 143093">
          <g id="Group_143092" data-name="Group 143092">
            <path id="Path_210460" data-name="Path 210460" d="M236.622,53.619a3.319,3.319,0,0,0,3.319-3.319V37.393a3.319,3.319,0,0,0-3.319-3.319H214.711a3.319,3.319,0,0,0-3.319,3.319V50.3a3.319,3.319,0,0,0,3.319,3.319h8.018v3.862a.664.664,0,0,0,1.112.49l4.763-4.353Z" transform="translate(-211.392 -34.074)" fill="#ffc91d"/>
          </g>
        </g>
      </g>
      <g id="Group_143097" data-name="Group 143097" transform="translate(11.338 0.36)">
        <g id="Group_143096" data-name="Group 143096">
          <g id="Group_143095" data-name="Group 143095">
            <path id="Path_210461" data-name="Path 210461" d="M242.045,34.56a3.284,3.284,0,0,1,.36,1.475V48.942a3.319,3.319,0,0,1-3.319,3.319h-8.018l-4.391,4.014v1.333a.664.664,0,0,0,1.112.49l4.763-4.353h8.018a3.319,3.319,0,0,0,3.319-3.319V37.52a3.31,3.31,0,0,0-1.845-2.96Z" transform="translate(-226.677 -34.56)" fill="#ffa91a"/>
          </g>
        </g>
      </g>
      <g id="Group_143100" data-name="Group 143100" transform="translate(6.98 4.118)">
        <g id="Group_143099" data-name="Group 143099">
          <g id="Group_143098" data-name="Group 143098">
            <path id="Path_210462" data-name="Path 210462" d="M234.259,40.759a3.867,3.867,0,0,0-5.469,0l-.694.694-.694-.694a3.867,3.867,0,1,0-5.469,5.469l.694.694,4.715,4.715a1.067,1.067,0,0,0,1.509,0l4.715-4.715.694-.694A3.868,3.868,0,0,0,234.259,40.759Z" transform="translate(-220.802 -39.626)" fill="#e63950"/>
          </g>
        </g>
      </g>
    </g>
  </g>
</svg>
