<svg xmlns="http://www.w3.org/2000/svg" width="180" height="180" viewBox="0 0 180 180">
  <g id="social-media" transform="translate(-0.5 0.001)">
    <path id="Path_210394" data-name="Path 210394" d="M121.909,194.238a72.859,72.859,0,1,1,72.892-72.86A72.959,72.959,0,0,1,121.909,194.238Zm0-139.786a66.926,66.926,0,1,0,66.957,66.926A67.017,67.017,0,0,0,121.909,54.452Zm0,0" transform="translate(-31.41 -31.413)" fill="#ffd151"/>
    <path id="Path_210395" data-name="Path 210395" d="M67.933,33.717A33.717,33.717,0,1,1,34.217,0,33.717,33.717,0,0,1,67.933,33.717Zm0,0" transform="translate(0 -0.001)" fill="#64e8ff"/>
    <path id="Path_210396" data-name="Path 210396" d="M85.573,0a33.943,33.943,0,0,0-5.749.49,33.72,33.72,0,0,1,0,66.453A33.718,33.718,0,1,0,85.573,0Zm0,0" transform="translate(-51.446 -0.001)" fill="#0fd9ff"/>
    <path id="Path_210397" data-name="Path 210397" d="M388.487,33.717A33.716,33.716,0,1,1,354.77,0,33.717,33.717,0,0,1,388.487,33.717Zm0,0" transform="translate(-207.987 -0.001)" fill="#6193ff"/>
    <path id="Path_210398" data-name="Path 210398" d="M439.053,32.751A33.741,33.741,0,0,0,399.182.564a33.721,33.721,0,0,1,0,66.3,33.73,33.73,0,0,0,39.873-34.116Zm0,0" transform="translate(-258.567 0)" fill="#407bff"/>
    <path id="Path_210399" data-name="Path 210399" d="M67.933,354.459a33.717,33.717,0,1,1-33.717-33.717A33.717,33.717,0,0,1,67.933,354.459Zm0,0" transform="translate(0 -208.176)" fill="#ff6969"/>
    <path id="Path_210400" data-name="Path 210400" d="M82.184,320.742a33.817,33.817,0,0,0-7.594.859,33.725,33.725,0,0,1,0,65.714,33.72,33.72,0,1,0,7.594-66.574Zm0,0" transform="translate(-47.967 -208.176)" fill="#ff4848"/>
    <path id="Path_210401" data-name="Path 210401" d="M388.487,354.459a33.716,33.716,0,1,1-33.717-33.717A33.716,33.716,0,0,1,388.487,354.459Zm0,0" transform="translate(-207.987 -208.176)" fill="#ff95c2"/>
    <path id="Path_210402" data-name="Path 210402" d="M404.2,320.742a33.893,33.893,0,0,0-6.8.686,33.724,33.724,0,0,1,0,66.062,33.719,33.719,0,1,0,6.8-66.747Zm0,0" transform="translate(-257.419 -208.176)" fill="#ff758e"/>
    <g id="Group_142977" data-name="Group 142977" transform="translate(16.369 12.347)">
      <path id="Path_210403" data-name="Path 210403" d="M79.29,57.084a18,18,0,0,1-4.107,1.822A7.4,7.4,0,0,0,62.2,63.862v1.651a17.607,17.607,0,0,1-14.357-6.791.478.478,0,0,0-.829.134c-1.122,3.213-4.19,14.978,8.578,20.652a19.24,19.24,0,0,1-9.622,3.283.482.482,0,0,0-.179.917c14.5,6.7,31.279-1.643,31.279-19.9a7.5,7.5,0,0,0-.132-1.37,12.781,12.781,0,0,0,3.052-4.782A.482.482,0,0,0,79.29,57.084Zm0,0" transform="translate(-45.51 -48.837)" fill="#fff"/>
      <path id="Path_210404" data-name="Path 210404" d="M404.474,77.759a2.978,2.978,0,0,1-2.978-2.978V45.467A10.46,10.46,0,0,1,411.944,35.02h3.526a2.977,2.977,0,1,1,0,5.954h-3.526a4.5,4.5,0,0,0-4.494,4.494V74.781A2.977,2.977,0,0,1,404.474,77.759Zm0,0" transform="translate(-276.436 -35.02)" fill="#fff"/>
      <path id="Path_210405" data-name="Path 210405" d="M399.309,91.506H385.794a2.978,2.978,0,0,1,0-5.955h13.515a2.978,2.978,0,1,1,0,5.955Zm0,0" transform="translate(-264.342 -67.735)" fill="#fff"/>
      <path id="Path_210406" data-name="Path 210406" d="M75.7,393.775v-10.71a1.023,1.023,0,0,1,1.536-.887l9.27,5.355,9.272,5.355a1.026,1.026,0,0,1,0,1.775L86.5,400.019l-9.27,5.355a1.024,1.024,0,0,1-1.536-.887Zm0,0" transform="translate(-65.053 -260.209)" fill="#fff"/>
      <path id="Path_210407" data-name="Path 210407" d="M392.624,400.027H368.953a7.72,7.72,0,0,1-7.711-7.711V368.645a7.72,7.72,0,0,1,7.711-7.711h23.671a7.72,7.72,0,0,1,7.711,7.711v23.671A7.72,7.72,0,0,1,392.624,400.027Zm-23.671-33.14a1.759,1.759,0,0,0-1.757,1.757v23.671a1.758,1.758,0,0,0,1.757,1.756h23.671a1.759,1.759,0,0,0,1.757-1.756V368.645a1.76,1.76,0,0,0-1.757-1.757Zm0,0" transform="translate(-250.375 -246.544)" fill="#fff"/>
      <path id="Path_210408" data-name="Path 210408" d="M401.1,409.275a8.487,8.487,0,1,1,8.488-8.488A8.5,8.5,0,0,1,401.1,409.275Zm0-11.021a2.533,2.533,0,1,0,2.533,2.533A2.536,2.536,0,0,0,401.1,398.255Zm0,0" transform="translate(-270.682 -266.852)" fill="#fff"/>
    </g>
    <path id="Path_210409" data-name="Path 210409" d="M213.649,289.541,212.571,268.8a2.977,2.977,0,0,0-5.946.31l1.078,20.746a2.976,2.976,0,0,0,2.971,2.822c.052,0,.1,0,.157,0A2.976,2.976,0,0,0,213.649,289.541Zm0,0" transform="translate(-133.637 -172.515)" fill="#83a7c5"/>
    <path id="Path_210410" data-name="Path 210410" d="M208.1,238.084H195.626a2.74,2.74,0,0,1-2.739-2.741V221.036a2.739,2.739,0,0,1,2.739-2.739H208.1a.427.427,0,0,1,.427.427v18.933A.427.427,0,0,1,208.1,238.084Zm0,0" transform="translate(-124.742 -141.58)" fill="#ff95c2"/>
    <path id="Path_210411" data-name="Path 210411" d="M263.71,230.128a84.568,84.568,0,0,0-26.468-10.583V201.9a83.729,83.729,0,0,0,26.468-10.584Zm0,0" transform="translate(-153.518 -124.108)" fill="#e5f4ff"/>
    <path id="Path_210412" data-name="Path 210412" d="M306.845,225.325a2.978,2.978,0,0,1-2.978-2.978V178a2.978,2.978,0,1,1,5.955,0v44.346A2.978,2.978,0,0,1,306.845,225.325Zm0,0" transform="translate(-196.684 -113.561)" fill="#6464ff"/>
  </g>
</svg>
