<svg id="viral" xmlns="http://www.w3.org/2000/svg" width="180" height="180" viewBox="0 0 180 180">
  <ellipse id="Ellipse_54" data-name="Ellipse 54" cx="86.035" cy="86.035" rx="86.035" ry="86.035" transform="translate(4 4)" fill="#d8ecfe"/>
  <g id="Group_143103" data-name="Group 143103" transform="translate(19.664 19.67)">
    <path id="Path_210463" data-name="Path 210463" d="M248.5,381.27v26.272a9.88,9.88,0,0,1,5.271,0V381.27c-.872.052-1.75.081-2.636.081S249.372,381.322,248.5,381.27Z" transform="translate(-180.799 -266.882)" fill="#8ac9fe"/>
    <path id="Path_210464" data-name="Path 210464" d="M82.2,251.771c-.028-.641-.045-1.285-.045-1.933q0-1.685.126-3.339H55.954a9.912,9.912,0,0,1,0,5.271Z" transform="translate(-55.954 -179.509)" fill="#8ac9fe"/>
    <path id="Path_210465" data-name="Path 210465" d="M341.943,146.228l10.078-10.078a9.906,9.906,0,0,1-3.728-3.728l-10.12,10.12A44.522,44.522,0,0,1,341.943,146.228Z" transform="translate(-238.94 -105.541)" fill="#8ac9fe"/>
    <path id="Path_210466" data-name="Path 210466" d="M253.771,64.767v-8.8a9.878,9.878,0,0,1-5.271,0v8.8Z" transform="translate(-180.799 -55.971)" fill="#8ac9fe"/>
    <path id="Path_210467" data-name="Path 210467" d="M134.423,136.151,144.5,146.228a44.476,44.476,0,0,1,3.77-3.686l-10.12-10.12a9.91,9.91,0,0,1-3.728,3.728Z" transform="translate(-106.832 -105.541)" fill="#8ac9fe"/>
    <path id="Path_210468" data-name="Path 210468" d="M143.84,338.174l-9.417,9.417a9.907,9.907,0,0,1,3.728,3.728l9.375-9.375A44.524,44.524,0,0,1,143.84,338.174Z" transform="translate(-106.832 -238.946)" fill="#8ac9fe"/>
    <path id="Path_210469" data-name="Path 210469" d="M353.4,347.591l-9.417-9.417a44.522,44.522,0,0,1-3.686,3.77l9.375,9.375A9.9,9.9,0,0,1,353.4,347.591Z" transform="translate(-240.314 -238.946)" fill="#8ac9fe"/>
    <path id="Path_210470" data-name="Path 210470" d="M407.465,246.5H381.142q.124,1.653.126,3.339c0,.648-.017,1.292-.045,1.933h26.242A9.9,9.9,0,0,1,407.465,246.5Z" transform="translate(-266.793 -179.509)" fill="#8ac9fe"/>
  </g>
  <g id="Group_143109" data-name="Group 143109" transform="translate(79.81 0)">
    <g id="Group_143106" data-name="Group 143106" transform="translate(0 159.621)">
      <g id="Group_143104" data-name="Group 143104" transform="translate(0)">
        <circle id="Ellipse_55" data-name="Ellipse 55" cx="10.19" cy="10.19" r="10.19" fill="#fe9901"/>
      </g>
      <g id="Group_143105" data-name="Group 143105" transform="translate(0 0.001)">
        <path id="Path_210471" data-name="Path 210471" d="M237.368,471.407a10.19,10.19,0,0,1,3.516-16.7,10.19,10.19,0,1,0,0,19A10.138,10.138,0,0,1,237.368,471.407Z" transform="translate(-227.005 -454.014)" fill="#fb8801"/>
      </g>
    </g>
    <g id="Group_143107" data-name="Group 143107" transform="translate(0 0)">
      <circle id="Ellipse_56" data-name="Ellipse 56" cx="10.19" cy="10.19" r="10.19" fill="#fe9901"/>
    </g>
    <g id="Group_143108" data-name="Group 143108" transform="translate(0 0.002)">
      <path id="Path_210472" data-name="Path 210472" d="M237.368,17.4a10.19,10.19,0,0,1,3.516-16.7,10.19,10.19,0,1,0,0,19A10.144,10.144,0,0,1,237.368,17.4Z" transform="translate(-227.005 -0.005)" fill="#fb8801"/>
    </g>
  </g>
  <g id="Group_143116" data-name="Group 143116" transform="translate(0 79.107)">
    <g id="Group_143112" data-name="Group 143112" transform="translate(159.621)">
      <g id="Group_143110" data-name="Group 143110" transform="translate(0)">
        <circle id="Ellipse_57" data-name="Ellipse 57" cx="10.19" cy="10.19" r="10.19" fill="#8bc727"/>
      </g>
      <g id="Group_143111" data-name="Group 143111" transform="translate(0 0.001)">
        <path id="Path_210473" data-name="Path 210473" d="M464.374,242.4a10.19,10.19,0,0,1,3.515-16.7,10.19,10.19,0,1,0,0,19A10.154,10.154,0,0,1,464.374,242.4Z" transform="translate(-454.01 -225.009)" fill="#81b823"/>
      </g>
    </g>
    <g id="Group_143115" data-name="Group 143115" transform="translate(0)">
      <g id="Group_143113" data-name="Group 143113">
        <circle id="Ellipse_58" data-name="Ellipse 58" cx="10.19" cy="10.19" r="10.19" fill="#8bc727"/>
      </g>
      <g id="Group_143114" data-name="Group 143114" transform="translate(0 0.001)">
        <path id="Path_210474" data-name="Path 210474" d="M10.365,242.4a10.19,10.19,0,0,1,3.515-16.7,10.19,10.19,0,1,0,0,19,10.154,10.154,0,0,1-3.515-2.293Z" transform="translate(-0.001 -225.009)" fill="#81b823"/>
      </g>
    </g>
  </g>
  <g id="Group_143121" data-name="Group 143121" transform="translate(32.249 31.546)">
    <g id="Group_143117" data-name="Group 143117" transform="translate(95.121)">
      <circle id="Ellipse_59" data-name="Ellipse 59" cx="10.19" cy="10.19" r="10.19" fill="#596ca9"/>
    </g>
    <g id="Group_143118" data-name="Group 143118" transform="translate(95.121 0)">
      <path id="Path_210475" data-name="Path 210475" d="M369.6,99.859a10.192,10.192,0,0,1,6.558-9.521,10.19,10.19,0,1,0,0,19.042,10.192,10.192,0,0,1-6.558-9.521Z" transform="translate(-362.34 -89.669)" fill="#465a94"/>
    </g>
    <g id="Group_143119" data-name="Group 143119" transform="translate(0 95.121)">
      <circle id="Ellipse_60" data-name="Ellipse 60" cx="10.19" cy="10.19" r="10.19" fill="#596ca9"/>
    </g>
    <g id="Group_143120" data-name="Group 143120" transform="translate(0 95.121)">
      <path id="Path_210476" data-name="Path 210476" d="M98.817,370.53a10.192,10.192,0,0,1,6.616-9.544,10.19,10.19,0,1,0,0,19.087A10.192,10.192,0,0,1,98.817,370.53Z" transform="translate(-91.669 -360.34)" fill="#465a94"/>
    </g>
  </g>
  <g id="Group_143127" data-name="Group 143127" transform="translate(32.249 31.546)">
    <g id="Group_143126" data-name="Group 143126">
      <g id="Group_143122" data-name="Group 143122" transform="translate(95.121 95.121)">
        <circle id="Ellipse_61" data-name="Ellipse 61" cx="10.19" cy="10.19" r="10.19" fill="#26a6fe"/>
      </g>
      <g id="Group_143123" data-name="Group 143123" transform="translate(95.121 95.122)">
        <path id="Path_210477" data-name="Path 210477" d="M369.6,370.531a10.192,10.192,0,0,1,6.558-9.521,10.19,10.19,0,1,0,0,19.042A10.192,10.192,0,0,1,369.6,370.531Z" transform="translate(-362.34 -360.341)" fill="#0593fc"/>
      </g>
      <g id="Group_143124" data-name="Group 143124">
        <circle id="Ellipse_62" data-name="Ellipse 62" cx="10.19" cy="10.19" r="10.19" fill="#26a6fe"/>
      </g>
      <g id="Group_143125" data-name="Group 143125" transform="translate(0 0)">
        <path id="Path_210478" data-name="Path 210478" d="M98.817,99.858a10.192,10.192,0,0,1,6.616-9.544,10.19,10.19,0,1,0,0,19.087A10.191,10.191,0,0,1,98.817,99.858Z" transform="translate(-91.669 -89.668)" fill="#0593fc"/>
      </g>
    </g>
  </g>
  <g id="Group_143128" data-name="Group 143128" transform="translate(45.545 51.67)">
    <path id="Path_210479" data-name="Path 210479" d="M201.311,155.66v6.478a3.166,3.166,0,0,1-3.163,3.163H185.5a2.115,2.115,0,0,0-1.826,1.054l-1.442,2.5.431.125a13.779,13.779,0,0,1,3.169,25.1l-.649.384.712.249a13.619,13.619,0,0,1,9.1,12.838v6.47a1.507,1.507,0,0,1-1.505,1.505H164.152a1.507,1.507,0,0,1-1.505-1.505v-6.47a13.619,13.619,0,0,1,9.1-12.838l.712-.249-.649-.384a13.779,13.779,0,0,1,3.169-25.1l.431-.125-1.442-2.5a2.115,2.115,0,0,0-1.826-1.054H159.491a3.166,3.166,0,0,1-3.163-3.163V155.66a41.82,41.82,0,1,0,44.983,0Z" transform="translate(-134.365 -152.59)" fill="#fff"/>
    <path id="Path_210480" data-name="Path 210480" d="M196.447,146.925v6.269a39.5,39.5,0,0,1,9.636,9.657H196.006q-.6-1.828-1.307-3.554a3.138,3.138,0,0,1-1.414.338h-4.208q.7,1.542,1.312,3.216h-12.83l-.194.335.431.125a13.747,13.747,0,0,1,7.044,4.811h7.184a68.128,68.128,0,0,1,2.059,14.5h-7.77a13.859,13.859,0,0,1-4.543,5.271h12.313a68.149,68.149,0,0,1-2.059,14.5h-1.894v5.271h.26c-.085.232-.172.462-.26.69a1.5,1.5,0,0,1-.4,1.016c-3.2,7.824-7.886,13.322-13.135,14.721V209.857H171.32v14.232c-5.249-1.4-9.931-6.9-13.135-14.721a1.5,1.5,0,0,1-.4-1.016c-.088-.229-.175-.458-.26-.69h.26v-5.271h-1.894a68.125,68.125,0,0,1-2.059-14.5h12.313a13.856,13.856,0,0,1-4.543-5.271h-7.77a68.146,68.146,0,0,1,2.059-14.5h7.183a13.746,13.746,0,0,1,7.044-4.811l.431-.125-.194-.335h-12.83q.614-1.673,1.312-3.216h-4.208a3.138,3.138,0,0,1-1.414-.338q-.7,1.726-1.307,3.554H141.829a39.5,39.5,0,0,1,9.636-9.657v-6.269a44.455,44.455,0,1,0,44.982,0Zm-57.725,21.2h11.71a74.314,74.314,0,0,0-1.875,14.5H134.863a38.9,38.9,0,0,1,3.859-14.5Zm-3.859,19.77h13.695a74.286,74.286,0,0,0,1.875,14.5h-11.71a38.9,38.9,0,0,1-3.859-14.5Zm6.966,19.769h10.078a50.866,50.866,0,0,0,3.606,8.428,37.111,37.111,0,0,0,3.564,5.413A39.41,39.41,0,0,1,141.828,207.662Zm67.362-39.539a38.893,38.893,0,0,1,3.859,14.5H199.355a74.282,74.282,0,0,0-1.875-14.5ZM188.836,221.5a37.129,37.129,0,0,0,3.564-5.413,50.91,50.91,0,0,0,3.606-8.428h10.078A39.41,39.41,0,0,1,188.836,221.5Zm20.354-19.112H197.48a74.283,74.283,0,0,0,1.875-14.5h13.695a38.9,38.9,0,0,1-3.859,14.5Z" transform="translate(-129.501 -146.925)" fill="#b3dafe"/>
  </g>
  <g id="Group_143131" data-name="Group 143131" transform="translate(67.157 28.135)">
    <path id="Path_210481" data-name="Path 210481" d="M232.24,265.4a13.734,13.734,0,0,1-13.472,0,13.959,13.959,0,0,0-9.788,13.32v6.47a1.856,1.856,0,0,0,1.857,1.857h29.335a1.856,1.856,0,0,0,1.857-1.857v-6.47A13.959,13.959,0,0,0,232.24,265.4Z" transform="translate(-202.661 -200.247)" fill="#8bc727"/>
    <path id="Path_210482" data-name="Path 210482" d="M225.522,267.8H225.5a14.061,14.061,0,0,1-7.186-1.965A13.956,13.956,0,0,0,208.98,279v6.47a1.856,1.856,0,0,0,1.857,1.857h10.9a1.856,1.856,0,0,1-1.857-1.857V279a13.929,13.929,0,0,1,5.64-11.2Z" transform="translate(-202.661 -200.527)" fill="#81b823"/>
    <path id="Path_210483" data-name="Path 210483" d="M233.508,192.312l-2.98,5.162a.7.7,0,0,1-1.217,0l-2.98-5.162a14.131,14.131,0,1,0,7.177,0Z" transform="translate(-207.077 -152.843)" fill="#97d729"/>
    <g id="Group_143129" data-name="Group 143129" transform="translate(8.711 39.469)">
      <path id="Path_210484" data-name="Path 210484" d="M226.757,205.982a14.067,14.067,0,0,1,2.713-8.326.707.707,0,0,1-.158-.182l-2.98-5.162a14.134,14.134,0,1,0,9.073,26.7,14.135,14.135,0,0,1-8.647-13.027Z" transform="translate(-215.788 -192.312)" fill="#8bc727"/>
    </g>
    <g id="Group_143130" data-name="Group 143130">
      <path id="Path_210485" data-name="Path 210485" d="M233.171,80H194.514A3.514,3.514,0,0,0,191,83.514v29.553a3.514,3.514,0,0,0,3.514,3.514h12.652a1.757,1.757,0,0,1,1.522.879l4.242,7.347a1.054,1.054,0,0,0,1.826,0L219,117.46a1.757,1.757,0,0,1,1.522-.879h12.652a3.514,3.514,0,0,0,3.514-3.514V83.514A3.514,3.514,0,0,0,233.171,80Z" transform="translate(-191 -80)" fill="#fd8087"/>
    </g>
  </g>
  <g id="Group_143135" data-name="Group 143135" transform="translate(67.154 28.128)">
    <g id="Group_143132" data-name="Group 143132">
      <path id="Path_210486" data-name="Path 210486" d="M201.543,113.067V83.514A3.514,3.514,0,0,1,205.057,80H194.514A3.514,3.514,0,0,0,191,83.514v29.553a3.514,3.514,0,0,0,3.514,3.514h10.543A3.514,3.514,0,0,1,201.543,113.067Z" transform="translate(-191 -80)" fill="#fe646f"/>
    </g>
    <g id="Group_143133" data-name="Group 143133" transform="translate(12.777 8.554)">
      <path id="Path_210487" data-name="Path 210487" d="M246.6,112.668l-17-8.172a1.563,1.563,0,0,0-2.24,1.409v16.344a1.563,1.563,0,0,0,2.24,1.409l17-8.172A1.563,1.563,0,0,0,246.6,112.668Z" transform="translate(-227.359 -104.34)" fill="#fff"/>
    </g>
    <g id="Group_143134" data-name="Group 143134" transform="translate(12.777 8.554)">
      <path id="Path_210488" data-name="Path 210488" d="M234.613,106.905,229.6,104.5a1.563,1.563,0,0,0-2.24,1.409v16.343a1.563,1.563,0,0,0,2.24,1.409l5.013-2.409Z" transform="translate(-227.359 -104.34)" fill="#f5f8f9"/>
    </g>
  </g>
</svg>
